<mxfile host="app.diagrams.net" agent="Mozilla/5.0 (Windows NT 10.0; Win64; x64) AppleWebKit/537.36 (KHTML, like Gecko) Chrome/139.0.0.0 Safari/537.36" version="28.1.1" pages="2">
  <diagram name="Page-1" id="7z0XCxr9s0eTJtN2Mqed">
    <mxGraphModel dx="786" dy="417" grid="1" gridSize="10" guides="1" tooltips="1" connect="1" arrows="1" fold="1" page="1" pageScale="1" pageWidth="827" pageHeight="1169" math="0" shadow="0">
      <root>
        <mxCell id="0" />
        <mxCell id="1" parent="0" />
        <mxCell id="MoKuYEoY47t-Fopz19YS-20" value="Traitement" style="html=1;shape=mxgraph.infographic.ribbonSimple;notch1=20;notch2=20;align=center;verticalAlign=middle;fontSize=14;fontStyle=0;fillColor=#f0a30a;whiteSpace=wrap;fontColor=#000000;strokeColor=#BD7000;" parent="1" vertex="1">
          <mxGeometry x="261" y="428.53" width="120.41" height="42.94" as="geometry" />
        </mxCell>
        <mxCell id="MH3xIu0K93oB-KbSQRHW-17" value="" style="rounded=0;whiteSpace=wrap;html=1;" parent="1" vertex="1">
          <mxGeometry x="80" y="110" width="680" height="60" as="geometry" />
        </mxCell>
        <mxCell id="zp7QBz-jprcbzeSODCav-26" value="" style="image;aspect=fixed;html=1;points=[];align=center;fontSize=12;image=img/lib/azure2/general/Files.svg;" vertex="1" parent="1">
          <mxGeometry x="95.1" y="325" width="64" height="70" as="geometry" />
        </mxCell>
        <mxCell id="zp7QBz-jprcbzeSODCav-27" value="" style="shape=image;html=1;verticalAlign=top;verticalLabelPosition=bottom;labelBackgroundColor=#ffffff;imageAspect=0;aspect=fixed;image=https://icons.diagrams.net/icon-cache1/Document_icons-2697/647702-excel-1195.svg" vertex="1" parent="1">
          <mxGeometry x="439.21" y="270" width="70" height="70" as="geometry" />
        </mxCell>
        <mxCell id="zp7QBz-jprcbzeSODCav-28" value="" style="verticalLabelPosition=bottom;aspect=fixed;html=1;shape=mxgraph.salesforce.data;" vertex="1" parent="1">
          <mxGeometry x="102.79999999999997" y="210" width="48.6" height="60" as="geometry" />
        </mxCell>
        <mxCell id="zp7QBz-jprcbzeSODCav-29" value="" style="verticalLabelPosition=bottom;aspect=fixed;html=1;shape=mxgraph.salesforce.web2;" vertex="1" parent="1">
          <mxGeometry x="642.2099999999999" y="265" width="75" height="75" as="geometry" />
        </mxCell>
        <mxCell id="zp7QBz-jprcbzeSODCav-32" value="" style="shape=image;html=1;verticalLabelPosition=bottom;verticalAlign=top;imageAspect=0;image=img/clipart/Gear_128x128.png" vertex="1" parent="1">
          <mxGeometry x="280" y="272.5" width="50" height="60" as="geometry" />
        </mxCell>
        <mxCell id="zp7QBz-jprcbzeSODCav-33" value="csv" style="text;html=1;align=center;verticalAlign=middle;whiteSpace=wrap;rounded=0;" vertex="1" parent="1">
          <mxGeometry x="449.21000000000004" y="350" width="60" height="30" as="geometry" />
        </mxCell>
        <mxCell id="zp7QBz-jprcbzeSODCav-34" value="PowerBI" style="text;html=1;align=center;verticalAlign=middle;whiteSpace=wrap;rounded=0;" vertex="1" parent="1">
          <mxGeometry x="649.7099999999999" y="350" width="60" height="30" as="geometry" />
        </mxCell>
        <mxCell id="zp7QBz-jprcbzeSODCav-35" value="pandas" style="text;html=1;align=center;verticalAlign=middle;whiteSpace=wrap;rounded=0;" vertex="1" parent="1">
          <mxGeometry x="272.8" y="345" width="60" height="30" as="geometry" />
        </mxCell>
        <mxCell id="zp7QBz-jprcbzeSODCav-37" value="" style="shape=singleArrow;whiteSpace=wrap;html=1;arrowWidth=0.4;arrowSize=0.4;verticalAlign=top;labelBackgroundColor=#ffffff;fillColor=#1ba1e2;fontColor=#ffffff;strokeColor=#006EAF;" vertex="1" parent="1">
          <mxGeometry x="530.0000000000001" y="275" width="80" height="60" as="geometry" />
        </mxCell>
        <mxCell id="zp7QBz-jprcbzeSODCav-39" value="" style="shape=singleArrow;whiteSpace=wrap;html=1;arrowWidth=0.4;arrowSize=0.4;verticalAlign=top;labelBackgroundColor=#ffffff;fillColor=#1ba1e2;fontColor=#ffffff;strokeColor=#006EAF;" vertex="1" parent="1">
          <mxGeometry x="340" y="275" width="80" height="60" as="geometry" />
        </mxCell>
        <mxCell id="zp7QBz-jprcbzeSODCav-40" value="" style="shape=singleArrow;whiteSpace=wrap;html=1;arrowWidth=0.4;arrowSize=0.4;verticalAlign=top;labelBackgroundColor=#ffffff;fillColor=#1ba1e2;fontColor=#ffffff;strokeColor=#006EAF;" vertex="1" parent="1">
          <mxGeometry x="192.8" y="272.5" width="80" height="60" as="geometry" />
        </mxCell>
        <mxCell id="zp7QBz-jprcbzeSODCav-41" value="" style="swimlane;startSize=0;" vertex="1" parent="1">
          <mxGeometry x="80" y="197.5" width="99.69" height="210" as="geometry" />
        </mxCell>
        <mxCell id="zp7QBz-jprcbzeSODCav-30" value="Source" style="text;html=1;align=center;verticalAlign=middle;whiteSpace=wrap;rounded=0;" vertex="1" parent="1">
          <mxGeometry x="95.1" y="407.5" width="60" height="30" as="geometry" />
        </mxCell>
        <mxCell id="zp7QBz-jprcbzeSODCav-42" value="Extraction" style="html=1;shape=mxgraph.infographic.ribbonSimple;notch1=20;notch2=20;align=center;verticalAlign=middle;fontSize=14;fontStyle=0;fillColor=#f0a30a;whiteSpace=wrap;fontColor=#000000;strokeColor=#BD7000;" vertex="1" parent="1">
          <mxGeometry x="80" y="428.53" width="198.55" height="42.94" as="geometry" />
        </mxCell>
        <mxCell id="zp7QBz-jprcbzeSODCav-43" value="Stockage" style="html=1;shape=mxgraph.infographic.ribbonSimple;notch1=20;notch2=20;align=center;verticalAlign=middle;fontSize=14;fontStyle=0;fillColor=#008a00;whiteSpace=wrap;fontColor=#ffffff;strokeColor=#005700;" vertex="1" parent="1">
          <mxGeometry x="364" y="428.53" width="206" height="42.94" as="geometry" />
        </mxCell>
        <mxCell id="zp7QBz-jprcbzeSODCav-44" value="Restitution" style="html=1;shape=mxgraph.infographic.ribbonSimple;notch1=20;notch2=20;align=center;verticalAlign=middle;fontSize=14;fontStyle=0;fillColor=#0050ef;whiteSpace=wrap;strokeColor=#001DBC;fontColor=#ffffff;" vertex="1" parent="1">
          <mxGeometry x="553" y="428.53" width="206" height="42.94" as="geometry" />
        </mxCell>
      </root>
    </mxGraphModel>
  </diagram>
  <diagram id="V9-YWGhXqqyQGaztOOwT" name="Page-2">
    <mxGraphModel dx="786" dy="417" grid="1" gridSize="10" guides="1" tooltips="1" connect="1" arrows="1" fold="1" page="1" pageScale="1" pageWidth="827" pageHeight="1169" math="0" shadow="0">
      <root>
        <mxCell id="0" />
        <mxCell id="1" parent="0" />
      </root>
    </mxGraphModel>
  </diagram>
</mxfile>
